<svg height="300" node-id="1" sillyvg="true" template-height="300" template-width="300" version="1.1" viewBox="0 0 1024 1024" width="300" xmlns="http://www.w3.org/2000/svg" xmlns:xlink="http://www.w3.org/1999/xlink"><defs node-id="51"><linearGradient gradientUnits="userSpaceOnUse" id="paint0_linear_1_124" node-id="24" spreadMethod="pad" x1="114.833" x2="895.026" y1="798.162" y2="798.162"><stop offset="0" stop-color="#f6f6f9"/><stop offset="1" stop-color="#cadefe"/></linearGradient><linearGradient gradientUnits="userSpaceOnUse" id="paint1_linear_1_124" node-id="27" spreadMethod="pad" x1="191.61" x2="808.15" y1="589.82" y2="649.154"><stop offset="0" stop-color="#cadefe"/><stop offset="1" stop-color="#e5efff"/></linearGradient><linearGradient gradientUnits="userSpaceOnUse" id="paint2_linear_1_124" node-id="30" spreadMethod="pad" x1="483.71" x2="797.69" y1="78.0687" y2="745.138"><stop offset="0" stop-color="#6eb0ff"/><stop offset="0.167426" stop-color="#aacaff"/><stop offset="0.356463" stop-color="#6ca1f9"/><stop offset="0.72643" stop-color="#c5dafd"/><stop offset="1" stop-color="#89b6fc"/></linearGradient><linearGradient gradientUnits="userSpaceOnUse" id="paint3_linear_1_124" node-id="36" spreadMethod="pad" x1="461.644" x2="481.475" y1="131.362" y2="657.424"><stop offset="0" stop-color="#599ef7"/><stop offset="1" stop-color="#5096ef"/></linearGradient><radialGradient cx="0" cy="0" fx="0" fy="0" gradientTransform="matrix(62.861 0 0 62.861 732.84 431.5)" gradientUnits="userSpaceOnUse" id="paint4_radial_1_124" node-id="39" r="1" rev="3" spreadMethod="pad"><stop offset="0" stop-color="#f2f7ff"/><stop offset="1" stop-color="#99c0ff"/></radialGradient><radialGradient cx="0" cy="0" fx="0" fy="0" gradientTransform="matrix(41.0251 0 0 41.0251 184.906 481)" gradientUnits="userSpaceOnUse" id="paint5_radial_1_124" node-id="42" r="1" rev="2" spreadMethod="pad"><stop offset="0" stop-color="#f2f7ff"/><stop offset="1" stop-color="#99c0ff"/></radialGradient><radialGradient cx="0" cy="0" fx="0" fy="0" gradientTransform="matrix(30.4379 0 0 30.4379 281.059 208)" gradientUnits="userSpaceOnUse" id="paint6_radial_1_124" node-id="45" r="1" rev="1" spreadMethod="pad"><stop offset="0" stop-color="#f2f7ff"/><stop offset="1" stop-color="#99c0ff"/></radialGradient><filter height="497.73" id="filter0_f_1_124" node-id="16" width="766.712" x="121.894" y="542.27"><feFlood color-interpolation-filters="sRGB" flood-color="#000000" flood-opacity="0" result="BackgroundImageFix"></feFlood><feBlend color-interpolation-filters="sRGB" in="SourceGraphic" in2="BackgroundImageFix" mode="normal" result="shape"></feBlend><feGaussianBlur color-interpolation-filters="sRGB" in="shape" result="effect1_foregroundBlur_1_124" stdDeviation="50 50"></feGaussianBlur></filter><filter height="295.537" id="filter1_f_1_124" node-id="20" width="399.599" x="295.157" y="469.699"><feFlood color-interpolation-filters="sRGB" flood-color="#000000" flood-opacity="0" result="BackgroundImageFix"></feFlood><feBlend color-interpolation-filters="sRGB" in="SourceGraphic" in2="BackgroundImageFix" mode="normal" result="shape"></feBlend><feGaussianBlur color-interpolation-filters="sRGB" in="shape" result="effect1_foregroundBlur_1_124" stdDeviation="7 7"></feGaussianBlur></filter><clipPath id="clip0_1_124" node-id="48"><path d="M 0.00 0.00 L 1024.00 0.00 L 1024.00 1024.00 L 0.00 1024.00 Z" fill="#000000" fill-rule="nonzero" node-id="118" stroke="none" target-height="1024" target-width="1024" target-x="0" target-y="0"/></clipPath></defs><g clip-path="url(#clip0_1_124)" id="sillyvg_g_0" node-id="122"><path d="M 272.93 704.49 C 219.14 734.71 205.28 805.96 243.82 854.14 L 252.45 864.93 C 290.40 912.38 347.87 940.00 408.63 940.00 L 606.23 940.00 C 674.47 940.00 737.86 904.69 773.77 846.67 L 773.77 846.67 C 810.09 788.00 776.41 711.14 708.67 698.07 L 428.81 644.08 C 405.58 639.60 381.51 643.50 360.89 655.09 L 272.93 704.49 Z" fill="#595656" fill-opacity="0.2" fill-rule="evenodd" filter="url(#filter0_f_1_124)" group-id="1" node-id="126" stroke="none" target-height="300.40002" target-width="604.81305" target-x="205.277" target-y="639.6"/><path d="M 894.66 653.79 C 894.54 655.70 894.41 657.72 894.28 659.62 C 894.15 661.27 893.90 663.05 893.65 664.70 C 893.39 666.60 893.14 668.62 892.76 670.52 C 892.38 672.30 892.13 673.95 891.75 675.72 C 891.37 677.62 890.86 679.52 890.35 681.42 C 889.85 683.20 889.34 684.85 888.83 686.62 C 888.20 688.52 887.69 690.42 886.93 692.20 C 886.30 693.85 885.66 695.62 885.03 697.27 C 884.27 699.30 883.38 701.20 882.50 703.23 C 881.74 704.87 880.97 706.52 880.21 708.17 C 879.20 710.07 878.19 712.10 877.17 714.00 C 876.28 715.52 875.40 717.17 874.51 718.69 C 873.12 720.97 871.72 723.25 870.20 725.53 C 869.31 726.92 868.43 728.32 867.41 729.71 C 865.64 732.25 863.86 734.78 861.96 737.19 C 861.08 738.33 860.19 739.60 859.30 740.74 C 858.92 741.25 858.41 741.75 858.03 742.39 C 856.01 744.92 853.85 747.33 851.70 749.87 C 851.06 750.50 850.56 751.26 849.92 751.89 C 847.26 754.68 844.60 757.60 841.81 760.38 C 841.30 760.89 840.80 761.40 840.29 761.91 C 838.14 763.93 835.85 766.09 833.57 768.12 C 831.80 769.76 829.90 771.41 828.00 773.06 C 826.22 774.58 824.45 776.10 822.67 777.50 C 820.64 779.14 818.62 780.66 816.59 782.31 C 814.69 783.71 812.79 785.23 810.76 786.62 C 808.61 788.14 806.45 789.66 804.17 791.31 C 802.14 792.70 800.11 794.10 797.96 795.49 C 795.68 797.01 793.27 798.53 790.86 799.93 C 787.95 801.83 784.90 803.60 781.86 805.38 C 776.03 808.80 770.08 811.97 763.87 815.14 C 762.09 816.02 760.32 816.91 758.54 817.80 C 753.85 820.21 748.91 822.36 744.09 824.64 C 742.45 825.40 740.80 826.16 739.15 826.92 C 732.81 829.71 726.35 832.37 719.63 834.91 C 718.49 835.29 717.35 835.80 716.08 836.18 C 710.51 838.20 704.80 840.23 699.10 842.13 C 696.82 842.89 694.41 843.65 692.00 844.41 C 688.83 845.43 685.67 846.32 682.50 847.33 C 679.84 848.09 677.17 848.85 674.39 849.61 C 671.22 850.50 667.92 851.38 664.63 852.15 C 661.97 852.91 659.18 853.54 656.51 854.17 C 653.22 854.93 649.92 855.69 646.50 856.46 C 643.71 857.09 641.05 857.72 638.26 858.23 C 634.84 858.99 631.42 859.62 628.12 860.26 C 625.46 860.76 622.93 861.27 620.27 861.78 C 612.92 863.05 605.57 864.31 598.21 865.33 C 597.20 865.45 596.06 865.58 595.05 865.71 C 588.58 866.59 582.12 867.36 575.65 867.99 C 573.12 868.24 570.71 868.50 568.18 868.75 C 563.99 869.13 559.81 869.51 555.63 869.76 C 552.97 870.02 550.31 870.14 547.77 870.27 C 543.46 870.52 539.03 870.78 534.72 870.90 C 532.31 871.03 529.77 871.16 527.37 871.16 C 523.56 871.28 519.76 871.28 515.96 871.41 C 513.30 871.41 510.64 871.54 507.97 871.54 C 503.92 871.54 499.86 871.54 495.81 871.41 C 493.40 871.41 490.99 871.41 488.58 871.28 C 484.91 871.16 481.11 871.03 477.43 870.90 C 474.77 870.78 472.23 870.78 469.57 870.52 C 465.52 870.27 461.59 870.02 457.66 869.76 C 455.38 869.64 453.10 869.51 450.69 869.26 C 445.87 868.88 441.06 868.37 436.24 867.86 C 434.72 867.74 433.32 867.61 431.80 867.48 C 425.59 866.72 419.38 865.96 413.17 865.07 C 412.16 864.95 411.27 864.82 410.26 864.57 C 404.93 863.81 399.61 862.92 394.29 862.03 C 392.13 861.65 389.98 861.27 387.82 860.76 C 383.77 860.00 379.71 859.24 375.66 858.48 C 373.63 858.10 371.47 857.60 369.45 857.09 C 365.01 856.20 360.70 855.19 356.26 854.17 C 353.86 853.54 351.45 852.91 349.04 852.40 C 345.11 851.38 341.18 850.37 337.25 849.23 C 334.97 848.60 332.82 847.96 330.54 847.33 C 324.33 845.55 318.24 843.65 312.16 841.63 C 311.02 841.25 310.00 840.99 308.86 840.61 C 301.89 838.20 295.05 835.67 288.20 833.13 C 285.42 832.12 282.75 830.98 279.97 829.84 C 277.81 828.95 275.66 828.07 273.50 827.18 C 270.46 825.91 267.42 824.52 264.38 823.12 C 262.35 822.24 260.45 821.35 258.42 820.46 C 255.12 818.94 251.96 817.29 248.66 815.64 C 247.01 814.88 245.37 814.00 243.84 813.24 C 239.03 810.70 234.34 808.17 229.78 805.50 C 152.84 761.14 114.44 702.84 114.69 644.67 L 114.44 724.64 C 114.31 782.82 152.72 841.12 229.52 885.48 C 234.09 888.14 238.78 890.67 243.59 893.21 C 245.11 893.97 246.76 894.86 248.41 895.62 C 251.58 897.27 254.87 898.91 258.17 900.43 C 260.07 901.32 262.10 902.21 264.00 903.10 C 267.04 904.49 270.08 905.88 273.12 907.15 C 275.28 908.04 277.43 908.93 279.59 909.81 C 281.61 910.70 283.77 911.59 285.80 912.35 C 286.43 912.60 287.19 912.86 287.82 913.11 C 294.54 915.77 301.51 918.30 308.48 920.59 C 309.62 920.97 310.64 921.35 311.78 921.60 C 317.86 923.63 323.94 925.53 330.16 927.30 C 331.17 927.56 332.18 927.94 333.20 928.32 C 334.34 928.70 335.61 928.95 336.75 929.21 C 340.68 930.35 344.60 931.36 348.53 932.37 C 350.94 933.01 353.35 933.64 355.76 934.15 C 360.07 935.16 364.50 936.17 368.94 937.06 C 370.59 937.44 372.23 937.82 373.88 938.20 C 374.26 938.33 374.77 938.33 375.28 938.46 C 379.20 939.22 383.26 939.98 387.32 940.74 C 389.47 941.12 391.75 941.62 393.91 942.00 C 399.23 942.89 404.55 943.78 409.88 944.54 C 410.76 944.67 411.65 944.79 412.54 944.92 L 412.66 944.92 C 418.88 945.81 425.08 946.57 431.30 947.33 C 432.94 947.46 434.59 947.58 436.24 947.84 C 440.80 948.34 445.49 948.85 450.18 949.23 C 450.31 949.23 450.43 949.23 450.56 949.23 C 452.84 949.36 455.00 949.48 457.28 949.74 C 461.21 949.99 465.13 950.37 469.06 950.50 C 471.73 950.62 474.26 950.75 476.92 950.88 C 480.60 951.00 484.40 951.26 488.08 951.26 C 488.33 951.26 488.71 951.26 488.96 951.26 C 491.12 951.26 493.14 951.26 495.30 951.26 C 499.36 951.26 503.41 951.38 507.47 951.38 C 510.13 951.38 512.79 951.26 515.45 951.26 C 519.25 951.26 523.06 951.13 526.86 951.00 C 527.62 951.00 528.25 951.00 529.01 951.00 C 530.79 951.00 532.56 950.75 534.34 950.75 C 538.77 950.62 543.08 950.37 547.39 950.12 C 550.05 949.99 552.71 949.74 555.25 949.61 C 559.43 949.36 563.61 948.98 567.80 948.60 C 569.32 948.47 570.71 948.34 572.23 948.22 C 573.25 948.09 574.26 947.96 575.27 947.84 C 581.74 947.20 588.20 946.44 594.66 945.55 C 595.68 945.43 596.82 945.30 597.83 945.17 C 605.18 944.16 612.54 942.89 619.89 941.62 C 620.52 941.50 621.28 941.37 621.91 941.25 C 623.82 940.87 625.84 940.49 627.75 940.10 C 631.17 939.47 634.59 938.84 637.88 938.08 C 640.67 937.44 643.46 936.94 646.12 936.30 C 649.42 935.54 652.71 934.78 656.01 934.02 C 658.80 933.39 661.46 932.63 664.25 931.99 C 667.54 931.11 670.71 930.35 673.88 929.46 C 676.54 928.70 679.33 927.94 681.99 927.18 C 685.16 926.29 688.33 925.28 691.50 924.26 C 692.89 923.88 694.28 923.50 695.68 922.99 C 696.69 922.61 697.58 922.23 698.59 921.98 C 704.30 920.08 709.87 918.18 715.45 916.02 C 716.59 915.64 717.86 915.14 719.00 914.76 C 725.59 912.22 732.05 909.56 738.39 906.77 C 740.04 906.01 741.68 905.25 743.33 904.49 C 748.28 902.34 753.09 900.05 757.78 897.65 C 759.56 896.76 761.33 895.87 763.11 894.98 C 769.19 891.82 775.27 888.65 781.10 885.23 C 782.75 884.34 784.27 883.32 785.92 882.44 C 787.44 881.55 788.71 880.66 790.23 879.77 C 792.64 878.25 795.04 876.86 797.33 875.34 C 799.48 873.95 801.51 872.55 803.53 871.16 C 805.82 869.64 807.97 868.12 810.13 866.47 C 812.15 865.07 814.05 863.55 815.96 862.16 C 817.98 860.51 820.14 858.99 822.04 857.34 C 823.81 855.82 825.59 854.43 827.36 852.91 C 829.26 851.26 831.16 849.61 832.94 847.96 C 833.70 847.33 834.46 846.57 835.22 845.93 C 836.74 844.54 838.14 843.15 839.53 841.75 C 840.04 841.25 840.54 840.74 841.05 840.23 C 843.84 837.44 846.63 834.65 849.16 831.74 C 849.80 831.11 850.43 830.35 850.94 829.71 C 853.09 827.30 855.25 824.77 857.27 822.24 C 857.65 821.73 858.16 821.09 858.67 820.59 C 858.92 820.33 859.05 820.08 859.30 819.83 C 860.06 818.94 860.57 817.93 861.33 817.04 C 863.23 814.50 865.13 812.10 866.78 809.56 C 867.79 808.17 868.55 806.77 869.57 805.38 C 871.09 803.10 872.48 800.82 873.88 798.53 C 874.26 797.90 874.64 797.27 875.02 796.63 C 875.52 795.75 876.03 794.73 876.54 793.85 C 877.55 791.94 878.57 789.92 879.58 788.01 C 880.34 786.37 881.10 784.72 881.86 783.07 C 882.75 781.04 883.51 779.14 884.40 777.12 C 884.78 776.23 885.16 775.34 885.54 774.45 C 885.79 773.69 886.04 772.81 886.30 772.04 C 886.93 770.14 887.57 768.24 888.20 766.34 C 888.71 764.57 889.21 762.92 889.72 761.14 C 890.23 759.24 890.73 757.34 891.11 755.44 C 891.37 754.43 891.62 753.41 891.87 752.40 C 892.00 751.77 892.13 751.01 892.25 750.37 C 892.63 748.47 892.89 746.44 893.14 744.54 C 893.39 742.89 893.65 741.12 893.77 739.47 C 894.03 737.57 894.03 735.54 894.15 733.64 C 894.15 732.50 894.41 731.36 894.41 730.22 C 894.41 729.08 894.41 727.94 894.41 726.80 L 894.66 646.83 C 895.04 649.23 894.79 651.51 894.66 653.79 Z" fill="url(#paint0_linear_1_124)" fill-rule="nonzero" node-id="129" stroke="none" target-height="306.714" target-width="780.728" target-x="114.315" target-y="644.67"/><path d="M 779.83 486.12 C 932.68 574.34 933.44 717.30 781.74 805.51 C 629.90 893.73 383.01 893.73 230.16 805.51 C 77.43 717.30 76.55 574.34 228.38 486.00 C 380.22 397.91 627.11 397.91 779.83 486.12 Z" fill="url(#paint1_linear_1_124)" fill-rule="nonzero" node-id="131" stroke="none" target-height="495.813" target-width="856.899" target-x="76.545" target-y="397.912"/><path d="M 673.87 709.33 L 670.86 714.52 L 667.40 719.35 L 663.49 723.85 L 659.10 728.03 L 654.21 731.90 L 649.09 735.30 L 643.56 738.40 L 637.60 741.20 L 631.18 743.69 L 624.25 745.87 L 615.63 747.96 L 606.45 749.56 L 596.64 750.64 L 586.17 751.18 L 575.87 751.16 L 565.11 750.60 L 553.88 749.49 L 542.15 747.79 L 530.67 745.63 L 518.89 742.89 L 506.80 739.58 L 494.38 735.65 L 482.25 731.30 L 469.99 726.38 L 457.59 720.85 L 445.03 714.70 L 432.72 708.08 L 421.00 701.23 L 409.85 694.13 L 399.25 686.81 L 388.83 679.01 L 379.08 671.11 L 370.00 663.13 L 361.55 655.06 L 353.33 646.52 L 345.88 638.04 L 339.16 629.63 L 333.14 621.27 L 327.48 612.45 L 322.64 603.84 L 318.59 595.44 L 315.27 587.22 L 313.00 580.33 L 311.28 573.65 L 310.08 567.18 L 309.38 560.88 L 309.16 554.74 L 309.45 548.50 L 310.29 542.50 L 311.67 536.70 L 313.58 531.08 L 316.04 525.60 L 319.05 520.42 L 322.51 515.58 L 326.42 511.09 L 330.81 506.91 L 335.70 503.04 L 340.82 499.64 L 346.35 496.53 L 352.31 493.73 L 358.74 491.24 L 365.67 489.07 L 374.28 486.98 L 383.47 485.38 L 393.28 484.29 L 403.75 483.75 L 414.05 483.78 L 424.80 484.33 L 436.03 485.44 L 447.76 487.14 L 459.25 489.31 L 471.03 492.04 L 483.12 495.36 L 495.54 499.28 L 507.66 503.63 L 519.92 508.56 L 532.33 514.08 L 544.88 520.23 L 557.19 526.85 L 568.91 533.71 L 580.06 540.80 L 590.66 548.12 L 601.09 555.93 L 610.83 563.82 L 619.91 571.80 L 628.37 579.87 L 636.59 588.42 L 644.03 596.89 L 650.75 605.31 L 656.77 613.67 L 662.44 622.49 L 667.27 631.09 L 671.32 639.49 L 674.64 647.71 L 676.92 654.60 L 678.64 661.28 L 679.84 667.76 L 680.54 674.06 L 680.76 680.20 L 680.46 686.43 L 679.62 692.43 L 678.25 698.23 L 676.33 703.86 L 673.87 709.33 Z" fill="#1f3899" fill-opacity="0.065016" fill-rule="nonzero" filter="url(#filter1_f_1_124)" group-id="2,3" node-id="137" stroke="none" target-height="267.4273" target-width="371.59622" target-x="309.1589" target-y="483.75336"/><path d="M 352.84 350.59 L 407.12 319.19 L 430.59 358.83 C 430.59 358.83 378.70 370.52 377.81 370.79 C 376.92 371.06 352.84 350.59 352.84 350.59 Z" fill="#9abffb" fill-rule="nonzero" node-id="141" stroke="none" target-height="51.864014" target-width="77.75" target-x="352.838" target-y="319.193"/><path d="M 439.14 107.21 L 479.60 81.59 C 479.60 81.59 515.10 68.23 556.19 96.06 C 597.29 123.90 624.85 163.94 633.37 178.54 C 641.88 193.14 664.95 232.95 668.94 286.55 C 673.39 346.22 644.86 364.27 619.60 378.36 C 653.57 407.68 688.46 468.94 707.53 521.29 C 726.60 573.63 734.00 608.26 734.00 679.21 C 716.14 689.25 646.26 761.90 646.26 761.90 L 618.00 649.27 L 501.00 428.78 C 501.00 428.78 555.86 329.55 563.49 308.67 C 571.12 287.80 490.80 180.46 487.99 176.28 C 485.19 172.10 394.70 135.42 394.70 135.42 L 439.14 107.21 Z" fill="url(#paint2_linear_1_124)" fill-rule="nonzero" node-id="143" stroke="none" target-height="693.6688" target-width="339.304" target-x="394.696" target-y="68.2292"/><path d="M 397.86 134.89 C 394.88 135.53 350.27 154.36 360.09 225.81 C 370.78 303.58 404.87 340.50 404.87 340.50 C 404.87 340.50 341.26 327.40 301.01 408.70 C 278.56 444.79 277.03 520.40 277.03 520.40 L 645.83 761.09 C 645.83 761.09 659.47 588.04 534.28 425.63 C 534.28 425.63 589.94 417.82 583.30 336.04 C 576.67 254.27 527.02 188.62 478.83 153.11 C 434.01 121.16 404.70 133.42 397.86 134.88 L 397.86 134.89 Z" fill="url(#paint3_linear_1_124)" fill-rule="nonzero" node-id="145" stroke="none" target-height="639.926" target-width="382.439" target-x="277.027" target-y="121.164"/><path d="M 805.00 431.50 C 805.00 457.74 783.74 479.00 757.50 479.00 C 731.26 479.00 710.00 457.74 710.00 431.50 C 710.00 405.26 731.26 384.00 757.50 384.00 C 783.74 384.00 805.00 405.26 805.00 431.50 Z" fill="url(#paint4_radial_1_124)" fill-rule="nonzero" node-id="147" stroke="none" target-height="95" target-width="95" target-x="710" target-y="384"/><path d="M 232.00 481.00 C 232.00 498.12 218.12 512.00 201.00 512.00 C 183.88 512.00 170.00 498.12 170.00 481.00 C 170.00 463.88 183.88 450.00 201.00 450.00 C 218.12 450.00 232.00 463.88 232.00 481.00 Z" fill="url(#paint5_radial_1_124)" fill-rule="nonzero" node-id="149" stroke="none" target-height="62" target-width="62" target-x="170" target-y="450"/><path d="M 316.00 208.00 C 316.00 220.71 305.70 231.00 293.00 231.00 C 280.30 231.00 270.00 220.71 270.00 208.00 C 270.00 195.29 280.30 185.00 293.00 185.00 C 305.70 185.00 316.00 195.29 316.00 208.00 Z" fill="url(#paint6_radial_1_124)" fill-rule="nonzero" node-id="151" stroke="none" target-height="46" target-width="46" target-x="270" target-y="185"/></g></svg>