<svg t="1709298270388" class="icon" viewBox="0 0 1024 1024" version="1.1" xmlns="http://www.w3.org/2000/svg" p-id="12051" width="32" height="32"><path d="M511.998194 512m-511.998194 0a511.998194 511.998194 0 1 0 1023.996388 0 511.998194 511.998194 0 1 0-1023.996388 0Z" fill="#d81e06" p-id="12052" data-spm-anchor-id="a313x.search_index.0.i5.b8803a81W5sbLV" class="selected"></path><path d="M464.951595 681.782823c16.339061 0 29.528076-13.192627 29.528076-29.529882v-166.665288a29.488339 29.488339 0 0 0-29.528076-29.528076 29.488339 29.488339 0 0 0-29.528075 29.528076v166.665288c0.001806 16.337255 13.190821 29.529882 29.528075 29.529882zM560.487961 681.782823c16.339061 0 29.529882-13.192627 29.529882-29.529882v-166.665288c0-16.339061-13.190821-29.528076-29.529882-29.528076-16.333643 0-29.528076 13.189015-29.528075 29.528076v166.665288c0 16.337255 13.194433 29.529882 29.528075 29.529882z" fill="#FFFFFF" p-id="12053"></path><path d="M717.247942 319.121048H306.753864c-12.925306 0-23.42486 10.499554-23.42486 23.423054v51.117817c0 12.925306 10.499554 23.423054 23.42486 23.423054h22.37364V662.557423c0 61.019512 49.47777 110.562306 110.5605 110.562306h142.456529c61.084536 0 110.558693-49.47777 110.627329-110.562306V417.083167h24.47608c12.925306 0 23.42486-10.497748 23.424861-23.423054v-51.117817c-0.001806-12.921694-10.499554-23.421248-23.424861-23.421248zM629.649911 662.557423c0 26.242563-21.259203 47.501766-47.505378 47.501766h-142.456529c-26.242563 0-47.503572-21.259203-47.503572-47.501766V417.083167H629.648105V662.557423zM540.019883 250.878465h-55.906105c-26.771785 0-48.556598 20.999107-49.866107 47.443966h155.641931c-1.383564-26.378029-23.166571-47.443967-49.869719-47.443966z" fill="#FFFFFF" p-id="12054"></path></svg>